<svg width="257" height="64" viewBox="0 0 257 64" fill="none" xmlns="http://www.w3.org/2000/svg">
<rect y="0.916382" width="257" height="63" rx="10" fill="#C31616"/>
<path d="M53.481 22.2839V40.0574H49.8311V22.2839H53.481ZM71.3765 22.2839V40.0574H67.7144L60.5732 28.1433V40.0574H56.9111V22.2839H60.5732L67.7266 34.2102V22.2839H71.3765ZM83.8154 35.4065C83.8154 35.0891 83.7666 34.8043 83.6689 34.552C83.5794 34.2916 83.4085 34.0556 83.1562 33.844C82.904 33.6243 82.55 33.4086 82.0942 33.197C81.6385 32.9854 81.0485 32.7657 80.3242 32.5378C79.5186 32.2774 78.7536 31.9845 78.0293 31.6589C77.3132 31.3334 76.6784 30.955 76.125 30.5237C75.5798 30.0842 75.1484 29.5756 74.8311 28.9978C74.5218 28.42 74.3672 27.7486 74.3672 26.9836C74.3672 26.2431 74.5299 25.5717 74.8555 24.9695C75.181 24.3591 75.6367 23.8383 76.2227 23.407C76.8086 22.9675 77.5003 22.6298 78.2979 22.3938C79.1035 22.1578 79.9865 22.0398 80.9468 22.0398C82.257 22.0398 83.4004 22.2758 84.377 22.7478C85.3535 23.2198 86.1104 23.8668 86.6475 24.6887C87.1927 25.5107 87.4653 26.4506 87.4653 27.5085H83.8276C83.8276 26.9877 83.7178 26.532 83.498 26.1414C83.2865 25.7426 82.9609 25.4293 82.5215 25.2014C82.0902 24.9736 81.5449 24.8596 80.8857 24.8596C80.251 24.8596 79.722 24.9573 79.2988 25.1526C78.8757 25.3398 78.5583 25.5961 78.3467 25.9216C78.1351 26.239 78.0293 26.5971 78.0293 26.9958C78.0293 27.297 78.1025 27.5696 78.249 27.8137C78.4036 28.0579 78.6315 28.2857 78.9326 28.4973C79.2337 28.7089 79.604 28.9083 80.0435 29.0955C80.4829 29.2826 80.9915 29.4657 81.5693 29.6448C82.5378 29.9377 83.3882 30.2673 84.1206 30.6335C84.8612 30.9998 85.4797 31.4107 85.9761 31.8665C86.4725 32.3222 86.8468 32.8389 87.0991 33.4167C87.3514 33.9945 87.4775 34.6497 87.4775 35.3821C87.4775 36.1552 87.327 36.8469 87.0259 37.4573C86.7248 38.0676 86.2894 38.5844 85.7197 39.0076C85.1501 39.4307 84.4705 39.7522 83.6812 39.9719C82.8918 40.1917 82.0088 40.3015 81.0322 40.3015C80.1533 40.3015 79.2866 40.1876 78.4321 39.9597C77.5776 39.7237 76.8005 39.3697 76.1006 38.8977C75.4089 38.4257 74.8555 37.8235 74.4404 37.0911C74.0254 36.3586 73.8179 35.4919 73.8179 34.491H77.4922C77.4922 35.0444 77.5776 35.5123 77.7485 35.8948C77.9194 36.2773 78.1595 36.5865 78.4688 36.8225C78.7861 37.0585 79.1605 37.2294 79.5918 37.3352C80.0312 37.441 80.5114 37.4939 81.0322 37.4939C81.667 37.4939 82.1878 37.4044 82.5947 37.2253C83.0098 37.0463 83.3149 36.7981 83.5103 36.4807C83.7137 36.1633 83.8154 35.8053 83.8154 35.4065ZM100.271 34.1614H103.92C103.847 35.3577 103.518 36.4197 102.932 37.3474C102.354 38.2751 101.544 38.9994 100.502 39.5203C99.4689 40.0411 98.2238 40.3015 96.7671 40.3015C95.6278 40.3015 94.6064 40.1062 93.7031 39.7156C92.7998 39.3168 92.0267 38.7472 91.3838 38.0066C90.749 37.266 90.2648 36.3708 89.9312 35.321C89.5975 34.2712 89.4307 33.0953 89.4307 31.7932V30.5603C89.4307 29.2582 89.6016 28.0823 89.9434 27.0325C90.2933 25.9745 90.7897 25.0753 91.4326 24.3347C92.0837 23.5942 92.8608 23.0245 93.7642 22.6257C94.6675 22.227 95.6766 22.0276 96.7915 22.0276C98.2726 22.0276 99.5218 22.2961 100.539 22.8333C101.564 23.3704 102.358 24.1109 102.919 25.0549C103.489 25.9989 103.831 27.0732 103.945 28.2776H100.283C100.242 27.5614 100.1 26.9552 99.8555 26.4587C99.6113 25.9542 99.241 25.5758 98.7446 25.3235C98.2563 25.0631 97.6053 24.9329 96.7915 24.9329C96.1812 24.9329 95.6481 25.0468 95.1924 25.2747C94.7367 25.5025 94.3542 25.8484 94.0449 26.3123C93.7357 26.7761 93.5037 27.3621 93.3491 28.0701C93.2026 28.7699 93.1294 29.5919 93.1294 30.5359V31.7932C93.1294 32.7128 93.1986 33.5225 93.3369 34.2224C93.4753 34.9141 93.6868 35.5001 93.9717 35.9802C94.2646 36.4522 94.639 36.8103 95.0947 37.0544C95.5586 37.2904 96.116 37.4084 96.7671 37.4084C97.5321 37.4084 98.1628 37.2864 98.6592 37.0422C99.1556 36.7981 99.534 36.436 99.7944 35.9558C100.063 35.4757 100.222 34.8775 100.271 34.1614ZM106.325 22.2839H112.954C114.313 22.2839 115.48 22.4874 116.457 22.8943C117.442 23.3012 118.199 23.9034 118.728 24.7009C119.257 25.4985 119.521 26.4791 119.521 27.6428C119.521 28.595 119.358 29.4128 119.033 30.0964C118.715 30.7719 118.264 31.3375 117.678 31.7932C117.1 32.2408 116.42 32.5989 115.639 32.8674L114.479 33.4778H108.718L108.693 30.6213H112.978C113.621 30.6213 114.154 30.5074 114.577 30.2795C115 30.0517 115.318 29.7343 115.529 29.3274C115.749 28.9205 115.859 28.4485 115.859 27.9114C115.859 27.3417 115.753 26.8494 115.542 26.4343C115.33 26.0193 115.008 25.7019 114.577 25.4822C114.146 25.2625 113.605 25.1526 112.954 25.1526H109.987V40.0574H106.325V22.2839ZM116.262 40.0574L112.209 32.135L116.079 32.1106L120.18 39.8865V40.0574H116.262ZM134.267 37.2009V40.0574H124.807V37.2009H134.267ZM126.003 22.2839V40.0574H122.341V22.2839H126.003ZM133.034 29.5227V32.3059H124.807V29.5227H133.034ZM134.255 22.2839V25.1526H124.807V22.2839H134.255ZM142.812 36.3464L146.999 22.2839H151.076L144.887 40.0574H142.202L142.812 36.3464ZM138.955 22.2839L143.129 36.3464L143.764 40.0574H141.054L134.902 22.2839H138.955ZM159.035 25.3235L154.201 40.0574H150.307L156.911 22.2839H159.389L159.035 25.3235ZM163.051 40.0574L158.205 25.3235L157.814 22.2839H160.317L166.958 40.0574H163.051ZM162.832 33.4412V36.3098H153.444V33.4412H162.832ZM175.319 31.0486V33.8074H168.422V31.0486H175.319ZM187.722 35.4065C187.722 35.0891 187.673 34.8043 187.575 34.552C187.486 34.2916 187.315 34.0556 187.062 33.844C186.81 33.6243 186.456 33.4086 186 33.197C185.545 32.9854 184.955 32.7657 184.23 32.5378C183.425 32.2774 182.66 31.9845 181.936 31.6589C181.219 31.3334 180.585 30.955 180.031 30.5237C179.486 30.0842 179.055 29.5756 178.737 28.9978C178.428 28.42 178.273 27.7486 178.273 26.9836C178.273 26.2431 178.436 25.5717 178.762 24.9695C179.087 24.3591 179.543 23.8383 180.129 23.407C180.715 22.9675 181.407 22.6298 182.204 22.3938C183.01 22.1578 183.893 22.0398 184.853 22.0398C186.163 22.0398 187.307 22.2758 188.283 22.7478C189.26 23.2198 190.017 23.8668 190.554 24.6887C191.099 25.5107 191.372 26.4506 191.372 27.5085H187.734C187.734 26.9877 187.624 26.532 187.404 26.1414C187.193 25.7426 186.867 25.4293 186.428 25.2014C185.996 24.9736 185.451 24.8596 184.792 24.8596C184.157 24.8596 183.628 24.9573 183.205 25.1526C182.782 25.3398 182.465 25.5961 182.253 25.9216C182.041 26.239 181.936 26.5971 181.936 26.9958C181.936 27.297 182.009 27.5696 182.155 27.8137C182.31 28.0579 182.538 28.2857 182.839 28.4973C183.14 28.7089 183.51 28.9083 183.95 29.0955C184.389 29.2826 184.898 29.4657 185.476 29.6448C186.444 29.9377 187.294 30.2673 188.027 30.6335C188.767 30.9998 189.386 31.4107 189.882 31.8665C190.379 32.3222 190.753 32.8389 191.005 33.4167C191.258 33.9945 191.384 34.6497 191.384 35.3821C191.384 36.1552 191.233 36.8469 190.932 37.4573C190.631 38.0676 190.196 38.5844 189.626 39.0076C189.056 39.4307 188.377 39.7522 187.587 39.9719C186.798 40.1917 185.915 40.3015 184.938 40.3015C184.06 40.3015 183.193 40.1876 182.338 39.9597C181.484 39.7237 180.707 39.3697 180.007 38.8977C179.315 38.4257 178.762 37.8235 178.347 37.0911C177.932 36.3586 177.724 35.4919 177.724 34.491H181.398C181.398 35.0444 181.484 35.5123 181.655 35.8948C181.826 36.2773 182.066 36.5865 182.375 36.8225C182.692 37.0585 183.067 37.2294 183.498 37.3352C183.938 37.441 184.418 37.4939 184.938 37.4939C185.573 37.4939 186.094 37.4044 186.501 37.2253C186.916 37.0463 187.221 36.7981 187.417 36.4807C187.62 36.1633 187.722 35.8053 187.722 35.4065ZM205.8 37.2009V40.0574H196.34V37.2009H205.8ZM197.536 22.2839V40.0574H193.874V22.2839H197.536ZM204.567 29.5227V32.3059H196.34V29.5227H204.567ZM205.788 22.2839V25.1526H196.34V22.2839H205.788Z" fill="white"/>
</svg>
