<svg width="485" height="75" viewBox="0 0 485 75" fill="none" xmlns="http://www.w3.org/2000/svg">
<path d="M31.88 56.1688H0.92V1.76882H11.96V46.4088H31.88V56.1688ZM37.6944 56.1688V16.1688H48.4144V56.1688H37.6944ZM37.6944 11.0488V0.168819H48.4144V11.0488H37.6944ZM94.5594 61.1288C94.5594 65.7155 92.7994 69.1022 89.2794 71.2888C85.7594 73.4755 80.986 74.5688 74.9594 74.5688C68.986 74.5688 64.3727 73.7688 61.1194 72.1688C57.9194 70.5688 56.3194 67.6622 56.3194 63.4488C56.3194 60.0888 58.2394 56.9155 62.0794 53.9288C60.106 52.5955 59.1194 50.5688 59.1194 47.8488C59.1194 46.7822 59.9194 45.0222 61.5194 42.5688L62.2394 41.4488C58.6127 38.8355 56.7994 34.9955 56.7994 29.9288C56.7994 24.8088 58.3194 21.1022 61.3594 18.8088C64.4527 16.5155 68.5327 15.3688 73.5994 15.3688C75.8927 15.3688 78.1594 15.6355 80.3994 16.1688L81.6794 16.4088L94.5594 16.0088V24.5688L88.5594 24.0888C89.7327 25.9022 90.3194 27.7155 90.3194 29.5288C90.3194 34.8622 88.9594 38.5422 86.2394 40.5688C83.5194 42.5955 79.2527 43.6088 73.4394 43.6088C72.2127 43.6088 71.1194 43.5022 70.1594 43.2888C69.626 44.6755 69.3594 45.8222 69.3594 46.7288C69.3594 47.5822 69.8127 48.1688 70.7194 48.4888C71.626 48.8088 73.7594 48.9955 77.1194 49.0488C83.8394 49.1022 88.426 50.0088 90.8794 51.7688C93.3327 53.4755 94.5594 56.5955 94.5594 61.1288ZM66.8794 62.3288C66.8794 64.6222 69.6794 65.7688 75.2794 65.7688C80.9327 65.7688 83.7594 64.4355 83.7594 61.7688C83.7594 60.3288 83.2794 59.3955 82.3194 58.9688C81.3594 58.5955 79.3327 58.3822 76.2394 58.3288L69.0394 57.7688C67.5994 59.2088 66.8794 60.7288 66.8794 62.3288ZM67.5194 29.6088C67.5194 33.5022 69.546 35.4488 73.5994 35.4488C77.706 35.4488 79.7594 33.5022 79.7594 29.6088C79.7594 25.6622 77.706 23.6888 73.5994 23.6888C69.546 23.6888 67.5194 25.6622 67.5194 29.6088ZM131.694 28.6488V45.2888C131.8 46.5688 132.014 47.4755 132.334 48.0088C132.654 48.4888 133.32 48.8355 134.334 49.0488L134.014 57.1288C131.294 57.1288 129.107 56.9422 127.454 56.5688C125.854 56.1955 124.227 55.4488 122.574 54.3288C118.734 56.1955 114.814 57.1288 110.814 57.1288C102.547 57.1288 98.4138 52.7555 98.4138 44.0088C98.4138 39.7422 99.5604 36.7288 101.854 34.9688C104.147 33.1555 107.667 32.0888 112.414 31.7688L120.974 31.1288V28.6488C120.974 26.9955 120.6 25.8755 119.854 25.2888C119.107 24.6488 117.907 24.3288 116.254 24.3288L101.214 24.9688L100.894 17.5288C106.6 15.9822 112.014 15.2088 117.134 15.2088C122.307 15.2088 126.014 16.2755 128.254 18.4088C130.547 20.5422 131.694 23.9555 131.694 28.6488ZM113.694 39.2088C110.707 39.4755 109.214 41.0755 109.214 44.0088C109.214 46.9422 110.52 48.4088 113.134 48.4088C115.16 48.4088 117.374 48.0888 119.774 47.4488L120.974 47.1288V38.5688L113.694 39.2088ZM160.451 56.1688V1.76882H195.651V11.3688H171.491V24.0888H190.851V33.5288H171.491V46.5688H195.651V56.1688H160.451ZM202.214 39.7688V30.0088H225.894V39.7688H202.214ZM256.311 40.3288H247.351V56.1688H236.311V1.76882H256.311C269.217 1.76882 275.671 8.06216 275.671 20.6488C275.671 26.9955 274.017 31.8755 270.711 35.2888C267.457 38.6488 262.657 40.3288 256.311 40.3288ZM247.351 30.8888H256.231C261.724 30.8888 264.471 27.4755 264.471 20.6488C264.471 17.2888 263.804 14.8888 262.471 13.4488C261.137 11.9555 259.057 11.2088 256.231 11.2088H247.351V30.8888ZM282.94 56.1688V0.168819H293.66V56.1688H282.94ZM334.663 28.6488V45.2888C334.769 46.5688 334.983 47.4755 335.303 48.0088C335.623 48.4888 336.289 48.8355 337.303 49.0488L336.983 57.1288C334.263 57.1288 332.076 56.9422 330.423 56.5688C328.823 56.1955 327.196 55.4488 325.543 54.3288C321.703 56.1955 317.783 57.1288 313.783 57.1288C305.516 57.1288 301.383 52.7555 301.383 44.0088C301.383 39.7422 302.529 36.7288 304.823 34.9688C307.116 33.1555 310.636 32.0888 315.383 31.7688L323.943 31.1288V28.6488C323.943 26.9955 323.569 25.8755 322.823 25.2888C322.076 24.6488 320.876 24.3288 319.223 24.3288L304.183 24.9688L303.863 17.5288C309.569 15.9822 314.983 15.2088 320.103 15.2088C325.276 15.2088 328.983 16.2755 331.223 18.4088C333.516 20.5422 334.663 23.9555 334.663 28.6488ZM316.663 39.2088C313.676 39.4755 312.183 41.0755 312.183 44.0088C312.183 46.9422 313.489 48.4088 316.103 48.4088C318.129 48.4088 320.343 48.0888 322.743 47.4488L323.943 47.1288V38.5688L316.663 39.2088ZM340.655 16.1688H351.215L358.495 47.0488H360.335L367.615 16.1688H378.175L364.095 72.9688H353.615L358.015 56.1688H350.495L340.655 16.1688ZM392.51 40.7288C392.563 43.1822 393.203 44.9688 394.43 46.0888C395.71 47.1555 397.523 47.6888 399.87 47.6888C404.83 47.6888 409.257 47.5288 413.15 47.2088L415.39 46.9688L415.55 54.8888C409.417 56.3822 403.87 57.1288 398.91 57.1288C392.883 57.1288 388.51 55.5288 385.79 52.3288C383.07 49.1288 381.71 43.9288 381.71 36.7288C381.71 22.3822 387.603 15.2088 399.39 15.2088C411.017 15.2088 416.83 21.2355 416.83 33.2888L416.03 40.7288H392.51ZM406.27 32.5688C406.27 29.3688 405.763 27.1555 404.75 25.9288C403.737 24.6488 401.95 24.0088 399.39 24.0088C396.883 24.0088 395.097 24.6755 394.03 26.0088C393.017 27.2888 392.483 29.4755 392.43 32.5688H406.27ZM424.491 56.1688V16.1688H435.131V20.4088C439.611 17.7422 443.878 16.0088 447.931 15.2088V26.0088C443.611 26.9155 439.905 27.8488 436.811 28.8088L435.211 29.3688V56.1688H424.491ZM482.977 26.1688C476.364 25.3155 471.724 24.8888 469.057 24.8888C466.444 24.8888 464.737 25.1288 463.937 25.6088C463.19 26.0888 462.817 26.8622 462.817 27.9288C462.817 28.9422 463.324 29.6622 464.337 30.0888C465.404 30.4622 468.07 31.0488 472.337 31.8488C476.657 32.5955 479.724 33.8488 481.537 35.6088C483.35 37.3688 484.257 40.2222 484.257 44.1688C484.257 52.8088 478.897 57.1288 468.177 57.1288C464.657 57.1288 460.39 56.6488 455.377 55.6888L452.817 55.2088L453.137 46.2488C459.75 47.1022 464.337 47.5288 466.897 47.5288C469.51 47.5288 471.27 47.2888 472.177 46.8088C473.137 46.2755 473.617 45.5022 473.617 44.4888C473.617 43.4755 473.11 42.7288 472.097 42.2488C471.137 41.7688 468.577 41.1822 464.417 40.4888C460.31 39.7955 457.244 38.6222 455.217 36.9688C453.19 35.3155 452.177 32.3822 452.177 28.1688C452.177 23.9022 453.617 20.7022 456.497 18.5688C459.377 16.3822 463.084 15.2888 467.617 15.2888C470.764 15.2888 475.057 15.7955 480.497 16.8088L483.137 17.2888L482.977 26.1688Z" fill="white"/>
</svg>
